# xmcd
#
# Track frame offsets: 
#        150
#        9652
#        23717
#        35915
#        54345
#        62420
#        75842
#        88892
#        100657
#        111650
#        126372
#        141897
#        150887
#        160067
#        174275
#        186170
#        205037
#        220312
#        233950
#        246557
#        257447
#        263960
#
# Disc length: 3680 seconds
#
# Revision: 2
# Processed by: cddbd v1.5.1PL2 Copyright (c) Steve Scherf et al.
# Submitted via: ExactAudioCopy v0.95a5
#
DISCID=280e5e16
DTITLE=Mance Lipscomb - Texas Songster
DYEAR=1900
DGENRE=Blues
TTITLE0=Sugar Babe (It's All Over Now)
TTITLE1=Going Down Slow
TTITLE2=Freddie
TTITLE3=Jack O' Diamonds
TTITLE4=Baby Please Don't Go
TTITLE5=One Thin Dime
TTITLE6=Shake, Shake, Mama
TTITLE7=Ella Speed
TTITLE8=Mama Don't Allow
TTITLE9=Ain't It Hard
TTITLE10='Bout A Spoonful
TTITLE11=Take Me Back Babe
TTITLE12=Rag in G
TTITLE13=Big Boss Man
TTITLE14=You Gonna Quit Me
TTITLE15=Blues in G
TTITLE16=Mama, Don't Dog Me
TTITLE17=Willie Poor Boy
TTITLE18=Tell Me Where You Stayed Last Night
TTITLE19=Knock Down Windows
TTITLE20=Nobody's Fault But Mine
TTITLE21=Motherless Children
EXTD=
EXTT0=
EXTT1=
EXTT2=
EXTT3=
EXTT4=
EXTT5=
EXTT6=
EXTT7=
EXTT8=
EXTT9=
EXTT10=
EXTT11=
EXTT12=
EXTT13=
EXTT14=
EXTT15=
EXTT16=
EXTT17=
EXTT18=
EXTT19=
EXTT20=
EXTT21=
PLAYORDER=
